<?xml version="1.0" standalone="no"?>
<!DOCTYPE svg PUBLIC "-//W3C//DTD SVG 20010904//EN"
 "http://www.w3.org/TR/2001/REC-SVG-20010904/DTD/svg10.dtd">
<svg version="1.0" xmlns="http://www.w3.org/2000/svg"
 width="50px" height="50px" viewBox="0 0 200.000000 200.000000"
 preserveAspectRatio="xMidYMid meet">

<g transform="translate(0.000000,200.000000) scale(0.100000,-0.100000)"
fill="white" stroke="none">
<path d="M1104 1789 c-96 -24 -179 -70 -212 -119 l-23 -35 -334 -5 c-317 -5
-335 -6 -361 -26 -15 -11 -37 -33 -48 -48 -20 -27 -21 -40 -23 -519 l-3 -492
23 -40 c41 -73 51 -75 399 -75 l306 0 11 -31 c14 -40 14 -109 1 -143 -8 -22
-16 -26 -52 -26 -51 0 -78 -14 -62 -30 15 -15 534 -14 549 1 15 15 -14 29 -63
29 -36 0 -44 4 -52 26 -13 34 -13 103 1 143 l11 31 306 0 c348 0 358 2 399 75
23 40 23 41 23 519 0 458 -1 482 -20 521 -19 39 -63 75 -92 75 -7 0 -22 17
-33 38 -25 47 -98 96 -183 123 -100 32 -354 37 -468 8z m396 -33 c135 -29 230
-92 230 -153 0 -60 -115 -126 -264 -153 -244 -42 -556 44 -556 155 0 56 98
122 223 149 82 18 285 19 367 2z m-630 -411 c6 -285 5 -282 123 -339 91 -44
198 -66 326 -66 160 0 288 31 378 92 71 48 73 57 73 318 0 152 4 230 10 230
23 0 59 -33 69 -62 7 -20 11 -190 11 -497 0 -448 -1 -467 -20 -499 -11 -18
-32 -37 -46 -42 -34 -13 -1554 -13 -1588 0 -14 5 -35 24 -46 42 -19 32 -20 51
-20 501 0 517 0 520 61 550 30 15 72 16 349 14 l315 -2 5 -240z m69 151 c19
-23 122 -64 203 -80 97 -20 252 -20 355 -1 47 9 108 30 156 54 l77 39 0 -78
c0 -91 -15 -117 -88 -154 -81 -41 -152 -57 -277 -63 -191 -9 -369 37 -430 109
-22 26 -25 39 -25 109 0 78 6 92 29 65z m0 -230 c20 -24 123 -64 210 -82 64
-12 115 -15 210 -11 161 7 239 27 336 87 l35 22 0 -80 c0 -93 -14 -119 -88
-156 -81 -41 -152 -57 -277 -63 -191 -9 -369 37 -430 109 -22 26 -25 39 -25
109 0 78 6 92 29 65z m176 -936 l0 -100 -115 0 -115 0 0 100 0 100 115 0 115
0 0 -100z"/>
<path d="M267 1424 c-4 -4 -7 -13 -7 -21 0 -10 20 -13 81 -13 71 0 80 2 77 18
-3 14 -16 18 -74 20 -38 1 -73 0 -77 -4z"/>
<path d="M517 1424 c-4 -4 -7 -13 -7 -21 0 -10 29 -13 136 -13 124 0 135 2
132 18 -3 15 -18 17 -129 20 -69 1 -128 -1 -132 -4z"/>
<path d="M565 1260 c-12 -19 -75 -253 -75 -278 0 -17 5 -23 17 -20 25 5 97
277 78 296 -9 11 -14 11 -20 2z"/>
<path d="M328 1184 c-43 -36 -78 -70 -78 -74 0 -14 147 -130 164 -130 32 0 15
29 -44 77 -33 26 -60 51 -60 54 0 3 27 28 60 54 55 44 71 74 45 81 -5 2 -45
-26 -87 -62z"/>
<path d="M657 1243 c-15 -14 -4 -30 53 -76 33 -27 60 -52 60 -56 0 -5 -27 -30
-60 -56 -60 -48 -75 -75 -42 -75 18 0 162 116 162 130 0 9 -150 140 -161 140
-3 0 -9 -3 -12 -7z"/>
<path d="M267 814 c-4 -4 -7 -13 -7 -21 0 -10 38 -13 186 -13 171 0 185 1 182
18 -3 15 -21 17 -179 20 -96 1 -178 -1 -182 -4z"/>
<path d="M717 814 c-4 -4 -7 -14 -7 -21 0 -11 17 -13 78 -11 60 2 77 6 77 18
0 12 -16 16 -70 18 -39 1 -74 0 -78 -4z"/>
<path d="M1057 814 c-4 -4 -7 -14 -7 -21 0 -11 17 -13 78 -11 60 2 77 6 77 18
0 12 -16 16 -70 18 -39 1 -74 0 -78 -4z"/>
<path d="M1297 814 c-4 -4 -7 -13 -7 -21 0 -11 42 -13 228 -11 194 3 227 5
227 18 0 13 -32 15 -221 18 -121 1 -223 -1 -227 -4z"/>
<path d="M265 659 c-15 -24 16 -30 141 -27 107 3 129 6 129 18 0 12 -23 15
-132 18 -89 2 -134 -1 -138 -9z"/>
<path d="M627 656 c-3 -8 -3 -17 0 -20 4 -3 143 -6 310 -6 296 0 303 0 303 20
0 20 -7 20 -304 20 -251 0 -305 -2 -309 -14z"/>
<path d="M1360 650 c0 -19 5 -21 68 -18 52 2 67 6 67 18 0 12 -15 16 -67 18
-63 3 -68 1 -68 -18z"/>
<path d="M1606 655 c-8 -21 10 -27 80 -23 44 2 59 7 59 18 0 23 -130 27 -139
5z"/>
</g>
</svg>
