<?xml version="1.0" standalone="no"?>
<!DOCTYPE svg PUBLIC "-//W3C//DTD SVG 20010904//EN"
 "http://www.w3.org/TR/2001/REC-SVG-20010904/DTD/svg10.dtd">
<svg version="1.0" xmlns="http://www.w3.org/2000/svg"
 width="1245.000000pt" height="691.000000pt" viewBox="0 0 1245.000000 691.000000"
 preserveAspectRatio="xMidYMid meet">

<g transform="translate(0.000000,691.000000) scale(0.100000,-0.100000)"
fill="#000000" stroke="none">
<path d="M4130 4265 c0 -3 0 -305 0 -672 l0 -668 80 -3 c80 -3 80 -3 80 23 0
31 5 31 42 0 l30 -25 291 0 c327 0 343 3 379 70 17 32 18 66 18 420 0 431 0
434 -71 472 -31 17 -58 18 -331 16 -292 -3 -297 -3 -320 -25 -14 -13 -27 -23
-31 -23 -4 0 -7 95 -7 210 l0 210 -80 0 c-44 0 -80 -2 -80 -5z m733 -494 c15
-12 17 -50 17 -362 0 -303 -2 -350 -16 -363 -13 -14 -52 -16 -269 -16 -234 0
-255 1 -276 19 l-24 19 0 340 c0 360 1 365 48 375 12 3 130 4 263 3 188 -1
245 -4 257 -15z"/>
<path d="M7830 3595 l0 -675 84 0 84 0 3 415 c4 382 5 416 22 432 16 16 42 18
283 18 224 0 266 -2 274 -15 6 -9 10 -187 10 -432 l0 -418 85 0 85 0 0 438 c0
489 0 489 -70 525 -32 16 -64 17 -332 15 -292 -3 -297 -3 -320 -25 -14 -13
-27 -23 -31 -23 -4 0 -7 95 -7 210 l0 210 -85 0 -85 0 0 -675z"/>
<path d="M9170 3985 l0 -85 -80 0 -80 0 0 -55 0 -54 78 -3 77 -3 5 -385 c4
-338 7 -389 22 -416 30 -54 66 -64 242 -64 l156 0 0 60 0 60 -103 0 c-77 0
-108 4 -125 16 l-22 15 0 353 c0 313 2 355 16 360 9 3 65 6 125 6 l109 0 0 55
0 55 -125 0 -125 0 0 85 0 85 -85 0 -85 0 0 -85z"/>
<path d="M5461 3882 c-19 -9 -44 -30 -55 -45 -20 -28 -21 -40 -21 -425 0 -355
2 -400 17 -428 34 -62 47 -64 450 -64 326 0 367 2 398 18 51 25 70 70 70 170
l0 83 -82 -3 -83 -3 -3 -65 c-2 -46 -7 -69 -19 -77 -13 -10 -84 -13 -278 -13
-220 0 -264 2 -283 16 -21 14 -22 21 -22 164 l0 150 388 2 387 3 0 222 c0 332
28 313 -470 313 -323 0 -364 -2 -394 -18z m682 -111 c14 -11 17 -35 17 -152
l0 -139 -305 0 -305 0 0 139 c0 144 2 153 45 164 11 3 135 5 276 4 200 -2 260
-5 272 -16z"/>
<path d="M6711 3883 c-58 -29 -71 -73 -71 -255 0 -175 11 -223 58 -255 24 -16
57 -18 319 -21 252 -3 293 -5 305 -19 19 -23 18 -263 -1 -286 -12 -15 -42 -17
-247 -17 -272 0 -264 -3 -264 91 l0 60 -82 -3 -83 -3 1 -76 c1 -84 15 -122 57
-153 27 -20 42 -21 360 -24 301 -2 335 -1 367 15 61 31 70 64 70 256 0 187 -7
213 -63 247 -30 18 -53 20 -302 21 -148 1 -281 4 -295 8 l-25 7 -3 144 c-2
127 -1 146 15 157 21 16 438 18 477 3 24 -9 26 -14 26 -75 l0 -65 86 0 87 0
-5 85 c-5 96 -21 128 -79 157 -30 16 -69 18 -354 18 -278 0 -324 -3 -354 -17z"/>
<path d="M9908 3878 c-66 -38 -68 -50 -68 -471 0 -340 2 -375 19 -413 33 -73
39 -74 445 -74 395 0 409 2 446 62 19 32 20 49 20 423 0 436 -1 440 -70 477
-32 16 -65 18 -395 18 -350 0 -361 -1 -397 -22z m680 -101 c9 -6 12 -91 12
-367 0 -345 -1 -360 -19 -370 -12 -6 -118 -10 -276 -10 -158 0 -264 4 -276 10
-18 10 -19 25 -19 363 0 194 4 357 8 363 4 7 16 14 27 17 32 8 529 3 543 -6z"/>
<path d="M11125 3888 c-3 -7 -4 -227 -3 -488 l3 -475 85 0 85 0 5 417 c4 323
8 420 18 430 19 19 522 19 545 -1 15 -12 17 -55 17 -432 l0 -419 85 0 86 0 -3
448 c-3 412 -4 449 -21 474 -38 56 -59 59 -381 56 -293 -3 -295 -3 -319 -26
l-25 -24 -4 24 c-3 22 -8 23 -86 26 -60 2 -84 -1 -87 -10z"/>
<path d="M8434 2710 c-30 -12 -37 -34 -43 -130 l-6 -85 -42 -3 c-40 -3 -43 -5
-43 -32 0 -27 3 -29 43 -32 l42 -3 3 -257 2 -258 50 0 50 0 2 258 3 257 85 5
c84 5 85 5 88 33 l3 27 -75 0 c-106 0 -106 0 -106 80 0 80 0 80 106 80 l75 0
-3 33 -3 32 -105 2 c-58 1 -114 -2 -126 -7z"/>
<path d="M8830 2552 c0 -55 -7 -62 -66 -62 -31 0 -34 -3 -34 -29 0 -28 2 -30
48 -33 l47 -3 5 -238 c6 -292 -2 -277 151 -277 l99 0 0 35 0 35 -59 0 c-98 0
-91 -18 -91 231 l0 219 75 0 75 0 0 30 0 29 -72 3 -73 3 -5 50 -5 50 -47 3
-48 3 0 -49z"/>
<path d="M9175 2490 c-1 -3 43 -134 99 -292 l101 -288 72 0 71 0 21 63 c11 34
43 144 72 245 29 100 55 182 58 182 4 0 31 -82 61 -182 29 -101 62 -211 72
-245 l19 -63 72 0 72 0 101 288 100 287 -40 5 c-23 3 -44 5 -47 3 -3 -1 -45
-115 -94 -253 -48 -137 -91 -250 -95 -250 -4 0 -14 24 -23 53 -87 300 -131
443 -138 447 -4 3 -34 3 -66 0 l-58 -5 -73 -245 c-41 -135 -76 -247 -78 -250
-9 -8 -18 14 -103 258 l-85 240 -44 4 c-24 2 -45 1 -47 -2z"/>
<path d="M11094 2491 c-2 -2 -4 -134 -4 -293 l0 -288 50 0 50 0 0 229 c0 126
3 237 6 246 12 29 60 45 139 45 l76 0 -3 32 -3 31 -80 -2 c-71 -2 -83 -5 -107
-29 l-28 -26 0 26 c0 24 -4 26 -46 30 -25 2 -47 1 -50 -1z"/>
<path d="M6889 2471 c-21 -17 -24 -29 -28 -105 -4 -105 4 -151 30 -177 17 -17
34 -19 192 -19 121 0 177 -4 185 -12 7 -7 12 -43 12 -90 0 -66 -3 -79 -19 -88
-22 -11 -260 -14 -278 -2 -6 4 -13 23 -15 42 -3 34 -4 35 -50 38 l-48 3 0 -55
c0 -47 4 -57 26 -75 25 -20 39 -21 229 -21 261 0 249 -7 253 154 4 112 3 116
-22 141 -25 25 -26 25 -199 25 -121 0 -177 4 -185 12 -7 7 -12 42 -12 88 0 46
5 81 12 88 8 8 56 12 148 12 150 0 160 -4 160 -58 l0 -33 47 3 c37 2 49 7 51
21 6 33 -8 87 -29 108 -18 18 -34 19 -228 19 -191 0 -211 -2 -232 -19z"/>
<path d="M7591 2464 c-20 -25 -21 -39 -21 -266 l0 -239 25 -24 24 -25 220 0
c248 0 266 4 281 59 13 48 13 416 0 463 -6 21 -19 42 -30 48 -11 6 -113 10
-249 10 l-230 0 -20 -26z m427 -46 c13 -13 18 -391 6 -422 -5 -14 -31 -16
-180 -16 l-174 0 0 218 c0 120 3 222 7 225 12 13 328 8 341 -5z"/>
<path d="M10330 2463 c-20 -26 -21 -35 -18 -271 4 -309 -18 -282 232 -282 132
0 186 3 195 13 11 10 14 10 18 0 3 -8 24 -13 54 -13 l49 0 0 290 0 290 -50 0
c-32 0 -50 -4 -50 -12 0 -9 -3 -9 -12 0 -9 9 -68 12 -204 12 l-193 0 -21 -27z
m418 -41 c9 -7 12 -58 10 -223 l-3 -214 -170 0 -170 0 -3 209 c-2 145 1 213 9
222 9 11 46 14 163 14 83 0 157 -4 164 -8z"/>
<path d="M11550 2470 c-19 -19 -20 -33 -20 -265 l0 -246 25 -24 24 -25 231 0
231 0 24 25 c21 20 25 34 25 80 l0 55 -49 0 -50 0 -3 -42 -3 -43 -178 -3 -178
-2 3 97 3 98 228 3 227 2 0 135 c0 189 22 175 -280 175 -227 0 -241 -1 -260
-20z m435 -50 c5 -9 9 -108 6 -167 -1 -10 -44 -13 -181 -13 l-180 0 0 88 c0
49 3 92 7 95 11 12 341 8 348 -3z"/>
</g>
</svg>
