<?xml version="1.0" standalone="no"?>
<!DOCTYPE svg PUBLIC "-//W3C//DTD SVG 20010904//EN"
 "http://www.w3.org/TR/2001/REC-SVG-20010904/DTD/svg10.dtd">
<svg version="1.0" xmlns="http://www.w3.org/2000/svg"
 width="200px" height="200px" viewBox="0 0 810.000000 510.000000"
 preserveAspectRatio="xMidYMid meet">

<g transform="translate(0.000000,510.000000) scale(0.100000,-0.100000)"
fill="white" stroke="none">
<path d="M2030 4728 c-280 -16 -507 -74 -757 -193 -208 -100 -366 -210 -536
-375 -180 -173 -299 -335 -411 -557 -146 -289 -216 -595 -216 -938 0 -184 39
-435 79 -513 66 -127 230 -181 358 -116 62 32 97 69 126 133 22 51 20 130 -8
301 -25 152 -16 405 18 550 115 483 438 867 890 1060 249 106 520 139 822 99
129 -17 301 -75 454 -154 417 -215 710 -618 794 -1095 20 -112 16 -390 -7
-515 -54 -291 -206 -576 -421 -790 -125 -124 -245 -210 -400 -286 -306 -149
-609 -190 -945 -127 -58 10 -121 24 -140 30 -82 26 -126 42 -134 50 -6 4 -17
8 -25 8 -9 0 -24 7 -34 14 -17 13 -16 16 12 61 62 97 62 205 0 298 -49 75
-108 105 -235 122 -272 36 -573 67 -616 62 -102 -12 -194 -92 -224 -194 -19
-65 -26 -11 56 -478 48 -272 52 -288 94 -345 49 -68 123 -104 211 -105 59 0
78 5 124 30 58 32 105 82 123 132 7 18 15 33 19 33 5 0 54 -25 111 -55 406
-214 887 -280 1368 -185 519 102 760 129 1217 137 557 10 886 -21 1513 -142
171 -33 316 -43 500 -33 171 9 260 21 391 54 496 124 923 427 1217 865 152
227 281 573 317 849 14 112 17 375 5 477 -17 147 -46 285 -69 330 -44 87 -139
144 -239 144 -122 1 -221 -74 -255 -192 -13 -47 -10 -86 18 -269 24 -155 16
-409 -18 -550 -132 -554 -542 -981 -1082 -1126 -354 -95 -736 -55 -1068 113
-377 192 -643 513 -772 933 -57 184 -69 470 -30 685 52 289 204 574 420 790
125 124 245 210 400 286 186 91 315 127 531 150 131 13 380 -3 469 -31 17 -5
68 -21 115 -35 89 -27 180 -64 180 -74 0 -3 -13 -25 -29 -49 -83 -122 -48
-291 78 -372 40 -25 67 -33 157 -45 272 -36 573 -67 616 -62 102 12 194 92
224 194 19 65 26 11 -56 478 -48 272 -52 288 -94 345 -74 102 -220 135 -332
77 -57 -29 -108 -83 -126 -134 -7 -18 -15 -33 -19 -33 -5 0 -54 25 -111 55
-315 166 -705 249 -1053 224 -177 -12 -219 -17 -290 -33 -78 -18 -378 -73
-475 -86 -275 -39 -451 -52 -770 -57 -536 -9 -911 24 -1425 126 -265 53 -381
62 -605 49z m3880 -149 c318 -33 597 -137 880 -328 95 -64 136 -87 138 -76 2
8 -4 52 -12 98 -20 104 -20 130 -1 167 19 37 63 60 115 60 32 0 48 -7 76 -32
34 -32 36 -38 64 -193 92 -509 92 -517 58 -560 -42 -53 -66 -56 -259 -34 -96
10 -235 26 -309 34 -180 20 -185 21 -220 61 -43 50 -43 111 3 160 30 33 39 36
146 54 62 11 115 21 117 23 6 6 -242 145 -331 185 -152 68 -309 109 -500 131
-493 58 -1009 -131 -1359 -500 -245 -258 -402 -583 -446 -925 -11 -81 -15
-377 -6 -392 2 -4 8 -35 11 -67 26 -229 149 -526 308 -741 72 -98 267 -288
370 -361 188 -133 423 -231 655 -275 168 -32 461 -31 612 1 345 73 605 214
850 460 264 264 414 559 471 926 20 131 15 401 -10 523 -29 143 -28 165 12
208 26 29 42 37 77 40 86 9 124 -32 151 -164 86 -419 27 -841 -173 -1234 -98
-194 -184 -314 -337 -471 -270 -278 -625 -464 -1036 -544 -70 -13 -142 -17
-320 -17 -219 0 -238 1 -385 32 -419 85 -708 122 -1125 142 -462 23 -1081 -25
-1543 -120 -365 -75 -594 -80 -896 -19 -230 47 -481 156 -696 304 -90 62 -126
82 -128 71 -2 -9 4 -53 12 -99 9 -46 16 -96 16 -111 0 -101 -126 -154 -204
-86 -18 17 -37 41 -40 54 -16 65 -106 602 -106 635 0 46 30 88 75 107 28 11
58 10 206 -7 96 -10 235 -26 309 -34 177 -20 182 -21 215 -55 21 -22 29 -42
33 -79 4 -48 3 -53 -34 -89 -37 -37 -44 -40 -134 -52 -52 -7 -103 -15 -113
-19 -14 -5 15 -26 115 -83 232 -133 393 -191 631 -227 293 -45 572 -13 846 95
595 237 1006 802 1039 1428 16 301 -34 560 -156 816 -227 474 -658 806 -1184
912 -151 30 -440 32 -593 4 -219 -40 -442 -132 -635 -260 -135 -90 -349 -301
-434 -430 -151 -227 -242 -460 -277 -706 -18 -129 -15 -377 6 -485 9 -49 20
-115 22 -146 5 -54 3 -59 -29 -94 -27 -30 -43 -38 -78 -41 -94 -10 -128 35
-158 207 -69 396 -15 788 157 1144 102 211 191 342 345 502 282 295 650 488
1071 562 153 27 492 23 640 -8 564 -115 940 -155 1450 -154 445 1 871 43 1283
127 148 30 306 51 442 59 56 3 118 -1 240 -14z"/>
<path d="M1950 3865 c-41 -7 -91 -17 -110 -22 l-35 -9 -9 -135 -9 -134 -40
-18 -41 -17 -66 45 c-36 25 -84 60 -107 77 l-42 31 -54 -40 c-29 -23 -77 -63
-106 -90 l-53 -48 59 -120 60 -120 -25 -38 c-19 -29 -31 -37 -46 -33 -12 2
-64 8 -116 11 -52 4 -102 9 -111 11 -13 4 -24 -13 -47 -68 -38 -94 -66 -192
-55 -195 4 -2 53 -34 108 -71 97 -65 100 -68 103 -108 2 -25 -2 -45 -10 -51
-7 -6 -60 -32 -118 -58 -58 -26 -108 -50 -112 -54 -8 -7 4 -98 28 -203 l15
-66 97 -7 c161 -10 167 -12 185 -51 10 -19 17 -38 17 -43 0 -4 -34 -55 -75
-111 -44 -61 -71 -108 -67 -114 36 -47 134 -165 151 -180 22 -20 22 -20 140
39 l119 58 37 -23 38 -23 -6 -56 c-4 -31 -9 -92 -13 -136 l-6 -80 98 -36 c169
-62 149 -68 235 61 l73 110 45 -5 c25 -3 45 -7 46 -8 0 -1 22 -49 48 -107 26
-58 51 -111 56 -119 7 -11 24 -11 107 3 55 8 116 20 137 26 l37 11 0 73 c0 40
3 100 6 134 7 59 7 60 48 76 40 16 41 16 81 -13 22 -17 70 -51 107 -77 l68
-47 47 37 c64 50 153 135 153 147 0 5 -25 59 -56 120 l-55 111 27 39 c25 36
29 38 68 33 22 -3 81 -9 130 -13 l89 -7 27 60 c15 34 37 92 48 129 l20 68
-109 72 -109 72 0 46 0 47 121 53 121 54 -5 65 c-3 36 -14 97 -23 136 l-17 72
-96 6 c-162 11 -169 13 -190 54 l-19 37 74 107 c41 58 74 110 74 115 0 14
-159 203 -170 203 -5 0 -61 -25 -124 -57 l-113 -56 -38 23 -37 23 8 101 c15
186 23 165 -86 207 -52 21 -111 40 -130 43 l-35 6 -70 -110 -70 -110 -45 6
c-25 4 -46 7 -46 8 -3 3 -78 167 -91 199 -17 42 -21 43 -143 22z m132 -344
c12 -21 21 -24 83 -26 39 -1 95 -5 125 -9 l55 -6 68 100 c37 55 73 100 80 100
31 -1 35 -15 27 -90 -5 -41 -9 -97 -9 -125 -1 -48 0 -51 42 -74 23 -13 68 -44
101 -69 l59 -45 112 56 c108 53 114 55 129 38 16 -17 13 -23 -41 -97 -97 -132
-94 -125 -71 -163 11 -17 35 -66 54 -109 l33 -77 48 -7 c26 -3 82 -7 124 -7
74 -1 77 -2 83 -27 4 -15 6 -28 4 -29 -2 -2 -52 -25 -113 -52 l-110 -50 -6
-84 c-3 -46 -9 -103 -13 -126 l-8 -42 104 -67 c57 -36 105 -68 106 -69 2 -2 1
-13 -3 -26 -7 -21 -10 -21 -99 -15 -50 4 -107 9 -127 12 -34 6 -37 4 -64 -42
-16 -27 -48 -75 -72 -106 l-44 -57 56 -111 c45 -89 54 -115 44 -126 -6 -8 -16
-14 -22 -14 -5 0 -48 28 -96 63 -47 35 -92 66 -98 70 -8 5 -55 -13 -114 -42
-55 -28 -107 -51 -114 -51 -9 0 -15 -34 -20 -130 -7 -118 -9 -130 -26 -130
-11 0 -22 0 -26 -1 -3 0 -28 48 -54 106 -26 59 -50 109 -52 111 -2 3 -37 6
-78 8 -41 2 -97 7 -125 11 l-50 7 -68 -102 c-55 -83 -71 -101 -89 -98 -25 3
-26 13 -13 168 l8 95 -34 16 c-18 9 -65 40 -102 69 l-69 53 -113 -56 c-109
-54 -112 -55 -129 -37 -16 18 -13 23 55 120 l73 101 -40 82 c-22 45 -45 96
-52 113 -11 29 -17 32 -73 38 -34 3 -80 6 -104 6 -57 0 -94 15 -94 38 0 14 29
31 113 70 l112 51 6 99 c4 55 9 111 13 125 6 24 -14 40 -196 158 -6 4 -7 17
-3 29 7 22 10 23 99 16 50 -4 107 -9 126 -12 34 -5 36 -3 77 63 23 37 55 84
71 103 l30 35 -56 112 c-53 106 -55 114 -40 130 16 16 24 12 123 -56 l105 -72
62 34 c35 19 84 42 110 52 54 20 53 17 64 177 5 89 7 97 27 100 19 3 28 -10
64 -87 23 -49 48 -101 55 -114z"/>
<path d="M2043 3135 c-117 -32 -211 -100 -275 -199 -50 -78 -71 -152 -70 -246
2 -182 100 -338 258 -412 207 -97 437 -37 569 147 66 92 88 169 83 287 -4 84
-9 105 -40 170 -19 40 -55 94 -79 120 -111 120 -294 174 -446 133z m237 -156
c58 -26 125 -91 158 -154 38 -73 38 -187 1 -265 -46 -94 -113 -149 -216 -175
-190 -49 -383 103 -383 299 0 138 81 257 207 302 59 21 179 17 233 -7z"/>
<path d="M5555 3873 c-11 -2 -56 -11 -100 -19 -44 -9 -86 -20 -92 -26 -8 -7
-13 -36 -13 -78 0 -37 -3 -94 -6 -128 -7 -59 -7 -60 -48 -76 -40 -16 -41 -16
-81 13 -22 17 -70 51 -107 77 l-68 47 -43 -34 c-71 -55 -157 -137 -157 -148 0
-6 25 -61 56 -122 l55 -111 -26 -38 c-24 -34 -30 -38 -63 -34 -20 3 -79 8
-131 12 l-94 8 -27 -60 c-15 -34 -37 -92 -48 -129 l-20 -68 109 -72 109 -72 0
-46 0 -47 -121 -53 -121 -54 5 -65 c3 -36 14 -97 23 -137 l17 -71 96 -7 c163
-10 169 -12 191 -54 l19 -38 -75 -105 c-41 -59 -74 -110 -74 -115 0 -14 159
-203 170 -203 6 0 60 25 120 55 60 30 114 55 120 55 6 0 25 -10 41 -22 l31
-23 -6 -90 c-4 -49 -9 -109 -12 -132 l-6 -42 58 -26 c78 -35 191 -68 203 -60
6 3 40 52 77 108 37 56 68 103 69 105 1 1 22 -1 47 -4 l46 -6 53 -119 c37 -84
58 -119 70 -119 27 0 191 30 226 41 l31 10 7 130 8 130 39 20 40 20 62 -42
c33 -24 81 -58 105 -76 24 -18 48 -33 52 -33 9 0 178 140 198 163 10 13 1 36
-47 134 l-59 118 25 38 c19 29 31 37 46 33 12 -2 64 -8 116 -11 52 -4 102 -9
111 -11 13 -4 24 13 47 68 36 87 65 192 53 196 -4 1 -52 33 -107 70 -87 59
-99 71 -102 99 -2 18 1 40 7 50 5 10 60 41 123 69 l113 51 -3 44 c-1 24 -12
85 -23 136 l-20 91 -97 7 c-165 10 -170 12 -187 52 -8 20 -15 39 -15 43 0 4
33 54 74 110 l75 103 -59 76 c-32 42 -73 89 -90 106 l-30 29 -119 -59 -120
-59 -36 25 -37 24 6 68 c3 37 9 97 12 135 l6 67 -98 36 c-169 62 -149 67 -235
-61 -44 -67 -80 -110 -90 -110 -31 0 -79 12 -79 21 0 4 -23 58 -51 118 -55
118 -56 119 -124 104z m40 -265 c26 -60 50 -108 54 -108 65 -2 157 -9 196 -15
l51 -7 67 101 c37 56 73 101 80 101 35 -1 39 -14 28 -113 -17 -147 -16 -151
22 -169 18 -9 64 -39 101 -68 l69 -53 113 56 c108 54 113 55 129 38 15 -18 12
-24 -56 -121 l-72 -102 40 -81 c22 -45 45 -96 52 -113 11 -29 17 -32 73 -38
34 -3 80 -6 104 -6 57 0 94 -15 94 -38 0 -15 -26 -31 -112 -70 l-113 -50 -6
-100 c-4 -55 -9 -111 -13 -125 -5 -22 3 -30 89 -87 108 -71 118 -81 109 -105
-6 -16 -17 -17 -98 -11 -50 4 -107 9 -126 12 -35 5 -36 4 -85 -76 -27 -45 -60
-90 -72 -102 l-22 -20 57 -114 c53 -107 56 -115 39 -131 -16 -16 -19 -15 -59
13 -24 16 -71 49 -105 73 l-61 43 -64 -35 c-35 -19 -84 -42 -110 -52 -54 -20
-53 -17 -63 -176 -6 -91 -8 -97 -30 -101 -21 -4 -28 5 -70 101 -26 58 -51 110
-55 114 -4 4 -38 9 -77 12 -39 2 -95 6 -124 10 l-54 6 -47 -73 c-75 -116 -91
-132 -117 -123 -17 5 -21 12 -17 28 3 12 8 69 12 127 l6 105 -44 24 c-23 13
-69 44 -102 69 l-59 45 -112 -56 c-108 -53 -114 -55 -129 -38 -16 17 -13 23
41 97 97 132 94 125 71 163 -11 17 -35 66 -54 109 l-33 77 -48 7 c-26 3 -81 7
-121 7 -67 1 -73 3 -84 26 -6 14 -9 27 -7 29 2 2 54 26 114 53 l110 50 6 84
c3 46 9 103 13 126 l8 42 -100 65 c-109 70 -115 76 -105 101 5 16 17 17 97 11
50 -4 107 -9 127 -12 34 -6 37 -4 64 42 16 27 48 74 71 105 l44 57 -55 112
c-44 88 -53 115 -44 126 6 8 16 14 22 14 5 0 48 -28 96 -63 47 -35 92 -66 98
-70 8 -5 55 13 114 42 55 28 107 51 114 51 10 0 15 33 20 129 7 122 9 130 29
133 11 2 24 2 27 -1 4 -4 28 -54 54 -113z"/>
<path d="M5593 3135 c-111 -30 -191 -86 -258 -180 -66 -92 -88 -169 -83 -287
4 -85 9 -105 41 -172 66 -140 189 -232 344 -258 175 -29 356 53 455 206 50 78
72 152 70 246 -3 182 -99 337 -257 411 -103 49 -212 61 -312 34z m244 -160
c231 -104 245 -435 24 -558 -71 -40 -194 -50 -268 -22 -60 23 -138 96 -169
157 -68 134 -22 312 103 395 97 65 206 75 310 28z"/>
</g>
</svg>
