<?xml version="1.0" encoding="UTF-8"?>
<svg id="_圖層_1" data-name="圖層 1" xmlns="http://www.w3.org/2000/svg" viewBox="0 0 518.66 191.74">
  <defs>
    <style>
      .cls-1 {
        fill: #fff;
        fill-rule: evenodd;
      }
    </style>
  </defs>
  <path class="cls-1" d="M210.8,167.72c-2.24,0-4.35-.37-6.33-1.1-1.97-.73-3.6-1.83-4.9-3.29-2.48-2.79-3.72-6.72-3.72-11.78,0-5.34,1.39-9.51,4.18-12.5,1.22-1.29,2.72-2.29,4.49-2.98,1.77-.7,3.66-1.08,5.66-1.15,2.07,0,4.04.35,5.89,1.05,1.85.7,3.43,1.73,4.72,3.09,2.75,2.89,4.13,7.06,4.13,12.5,0,5.1-1.21,9.03-3.62,11.78-1.22,1.39-2.77,2.47-4.64,3.24-1.87.77-3.83,1.15-5.87,1.15h0ZM210.54,162.16c1.12,0,2.22-.39,3.29-1.17,1.07-.78,1.95-1.96,2.63-3.52.68-1.56,1.02-3.43,1.02-5.61,0-3.13-.46-5.71-1.38-7.75-.92-2.04-2.77-3.06-5.56-3.06s-4.86,1-5.82,3.01c-.95,2.01-1.43,4.61-1.43,7.8,0,2.21.36,4.09,1.07,5.64.71,1.55,1.63,2.71,2.75,3.49,1.12.78,2.26,1.17,3.42,1.17h0ZM257.07,134.41c.61.17,1.24.54,1.89,1.12.65.58,1.17,1.26,1.58,2.04.41.78.59,1.55.56,2.3-.07.48-.38,1.09-.94,1.84-.56.75-1.05,1.07-1.45.97-1.12-.41-2.98-.72-5.59-.94s-4.77-.3-6.5-.23c-1.36,0-2.67.07-3.93.2.03.24.05.61.05,1.12v6.48c1.12-.07,2.7-.1,4.74-.1l4.54.05c1.39,0,2.09-.42,2.09-1.28,0-.2-.03-.41-.1-.61.68.14,1.49.47,2.42.99.94.53,1.72,1.16,2.35,1.89.63.73.91,1.42.84,2.07-.03.27-.22.72-.56,1.35-.34.63-.72,1.17-1.15,1.63-.43.46-.77.64-1.05.54-1.5-.48-2.61-.79-3.34-.94-.73-.15-2.1-.25-4.11-.28-1.87,0-4.1.05-6.68.15v9.79c0,.54-.28,1.11-.84,1.68-.56.58-1.25,1.05-2.07,1.4-.82.36-1.58.54-2.3.54-.65,0-1.17-.18-1.58-.54-.41-.36-.61-.91-.61-1.66v-22.75c-.58-.07-1.13-.43-1.66-1.1-.53-.66-1.06-1.61-1.61-2.83-.07-.34.31-.93,1.12-1.76.82-.83,1.67-1.49,2.55-1.96.24.61.71.92,1.43.92.24,0,.42-.02.56-.05,1.05-.14,2.69-.25,4.9-.33,2.21-.08,4.44-.13,6.68-.13,2.89,0,4.74.05,5.56.15.14.03.34.05.61.05.58,0,.99-.13,1.25-.38.26-.26.38-.57.38-.94,0-.2-.02-.36-.05-.46h0ZM293.24,134.41c.61.17,1.24.54,1.89,1.12.65.58,1.17,1.26,1.58,2.04.41.78.59,1.55.56,2.3-.07.48-.38,1.09-.94,1.84-.56.75-1.05,1.07-1.45.97-1.12-.41-2.98-.72-5.59-.94-2.6-.22-4.77-.3-6.5-.23-1.36,0-2.67.07-3.93.2.03.24.05.61.05,1.12v6.48c1.12-.07,2.7-.1,4.74-.1l4.54.05c1.39,0,2.09-.42,2.09-1.28,0-.2-.03-.41-.1-.61.68.14,1.49.47,2.42.99.94.53,1.72,1.16,2.35,1.89.63.73.91,1.42.84,2.07-.03.27-.22.72-.56,1.35-.34.63-.72,1.17-1.15,1.63-.43.46-.77.64-1.05.54-1.5-.48-2.61-.79-3.34-.94-.73-.15-2.1-.25-4.11-.28-1.87,0-4.1.05-6.68.15v9.79c0,.54-.28,1.11-.84,1.68-.56.58-1.25,1.05-2.07,1.4-.82.36-1.58.54-2.3.54-.65,0-1.17-.18-1.58-.54-.41-.36-.61-.91-.61-1.66v-22.75c-.58-.07-1.13-.43-1.66-1.1-.53-.66-1.06-1.61-1.61-2.83-.07-.34.31-.93,1.12-1.76.82-.83,1.67-1.49,2.55-1.96.24.61.71.92,1.43.92.24,0,.42-.02.56-.05,1.05-.14,2.69-.25,4.9-.33,2.21-.08,4.44-.13,6.68-.13,2.89,0,4.74.05,5.56.15.14.03.34.05.61.05.58,0,.99-.13,1.25-.38.26-.26.38-.57.38-.94,0-.2-.02-.36-.05-.46h0ZM328.03,158.54c.68.14,1.48.48,2.4,1.02.92.54,1.7,1.19,2.35,1.94.65.75.95,1.46.92,2.14-.03.24-.23.66-.59,1.28-.36.61-.75,1.15-1.17,1.61-.42.46-.77.64-1.05.54-1.36-.48-2.43-.79-3.21-.94-.78-.15-2.23-.25-4.34-.28l-3.37.05c-3.5.14-5.73.2-6.68.2-.51.58-1.18,1.06-2.02,1.45-.83.39-1.61.59-2.32.59-.65,0-1.16-.18-1.56-.54-.39-.36-.59-.91-.59-1.66v-22.8c-.82-.54-1.62-1.79-2.4-3.72-.1-.27.27-.83,1.12-1.68.85-.85,1.68-1.5,2.5-1.94.37.71,1.02,1,1.94.87,1.16-.17,2.94-.31,5.36-.41,2.41-.1,4.76-.15,7.04-.15,2.41,0,4.01.05,4.8.15.17.03.37.05.61.05.58,0,.99-.12,1.25-.36.26-.24.38-.54.38-.92,0-.2-.02-.36-.05-.46.61.17,1.25.54,1.91,1.12.66.58,1.19,1.26,1.58,2.04.39.78.54,1.53.43,2.24,0,.27-.14.66-.43,1.17-.29.51-.62.94-.99,1.28-.37.34-.7.46-.97.36-.95-.34-2.56-.62-4.82-.84-2.26-.22-4.33-.33-6.2-.33-2.01,0-3.94.14-5.82.41v6.22c2.07-.07,4.88-.1,8.42-.1,1.6.14,2.4-.29,2.4-1.28,0-.24-.03-.46-.1-.66.68.14,1.49.48,2.42,1.05.94.56,1.73,1.21,2.37,1.94.65.73.94,1.44.87,2.12-.03.24-.23.66-.59,1.28-.36.61-.74,1.15-1.15,1.61-.41.46-.75.64-1.02.54-1.39-.48-2.47-.78-3.24-.92-.76-.14-2.18-.2-4.26-.2l-1.53-.05c-.88,0-2.41.05-4.59.15v6.99c3.03-.14,6.92-.2,11.68-.2,1.6.03,2.4-.41,2.4-1.33,0-.2-.03-.41-.1-.61h0ZM362.05,153.03c1.46,1.09,2.79,2.22,3.98,3.39,1.19,1.17,2.01,2.17,2.45,2.98.48.85.71,1.73.71,2.65s-.23,1.85-.69,2.7c-.46.85-1.01,1.54-1.66,2.07-.65.53-1.22.79-1.73.79-.34,0-.61-.12-.82-.36l-2.6-3.32c-3.98-5.07-6.78-8.48-8.42-10.25-1.26-.17-2.36-.39-3.32-.66v11.17c0,.58-.28,1.17-.84,1.79-.56.61-1.24,1.11-2.04,1.5-.8.39-1.56.59-2.27.59-.65,0-1.17-.2-1.58-.59-.41-.39-.61-.98-.61-1.76v-25.56c0-1.09-.14-1.86-.41-2.32-.27-.46-.73-.71-1.38-.74.75-.75,1.48-1.34,2.19-1.79.71-.44,1.33-.66,1.84-.66.2,0,.36.02.46.05,1.46.48,2.52,1.02,3.16,1.63,3.47-.99,6.78-1.48,9.95-1.48,1.9,0,3.61.21,5.13.64,1.51.43,2.71,1.11,3.6,2.07.75.82,1.31,1.73,1.68,2.73.37,1,.56,2.05.56,3.14,0,3.84-1.67,6.68-5,8.52-.82.44-1.6.8-2.35,1.07h0ZM349.96,148.03c1.63.48,3.2.71,4.69.71,1.97,0,3.66-.34,5.05-1.02,1.39-.68,2.09-1.8,2.09-3.37,0-.48-.14-1-.43-1.58-.29-.58-.62-1-.99-1.28-.75-.61-1.79-.92-3.11-.92-.92,0-2.06.06-3.42.18-1.36.12-2.65.31-3.88.59v6.68h0ZM402.61,138.08c3.2,2.79,4.8,6.87,4.8,12.24,0,2.52-.31,4.88-.94,7.09-.63,2.21-1.56,4.06-2.78,5.56-1.26,1.46-2.77,2.61-4.54,3.44-1.77.83-3.67,1.25-5.71,1.25-2.24,0-4.54-.56-6.89-1.68-.54.54-1.26,1.01-2.14,1.4-.88.39-1.7.59-2.45.59-.68,0-1.23-.18-1.66-.54-.43-.36-.64-.89-.64-1.61v-18.93c0-1.19-.2-2.16-.61-2.91-.71-.17-1.31-.53-1.79-1.07-.48-.54-.71-1.19-.71-1.94,0-.31.05-.61.15-.92.2-.85.65-1.74,1.33-2.68.68-.94,1.39-1.66,2.14-2.17-.07.68.03,1.13.28,1.35s.79.31,1.61.28c.78-.03,2.11-.32,3.98-.87,1.53-.41,2.87-.73,4.03-.97,1.16-.24,2.31-.36,3.47-.36,3.54,0,6.56,1.14,9.08,3.42h0ZM397.45,158.84c.75-.88,1.32-2.09,1.71-3.62.39-1.53.59-3.2.59-5,0-2.92-.66-5.15-1.99-6.68-1.22-1.46-3.21-2.19-5.97-2.19-.82,0-1.57.12-2.27.36-.7.24-1.69.63-2.98,1.17.51.75.77,1.96.77,3.62v13.98c1.36.48,2.82.71,4.39.71,2.65,0,4.57-.78,5.76-2.35h0ZM438.16,158.54c.68.14,1.48.48,2.4,1.02.92.54,1.7,1.19,2.35,1.94.65.75.95,1.46.92,2.14-.03.24-.23.66-.59,1.28-.36.61-.75,1.15-1.17,1.61-.43.46-.77.64-1.05.54-1.36-.48-2.43-.79-3.21-.94-.78-.15-2.23-.25-4.34-.28l-3.37.05c-3.5.14-5.73.2-6.68.2-.51.58-1.18,1.06-2.01,1.45-.83.39-1.61.59-2.32.59-.65,0-1.16-.18-1.56-.54-.39-.36-.59-.91-.59-1.66v-22.8c-.82-.54-1.62-1.79-2.4-3.72-.1-.27.27-.83,1.12-1.68s1.68-1.5,2.5-1.94c.37.71,1.02,1,1.94.87,1.16-.17,2.94-.31,5.36-.41,2.41-.1,4.76-.15,7.04-.15,2.41,0,4.01.05,4.79.15.17.03.37.05.61.05.58,0,.99-.12,1.25-.36.26-.24.38-.54.38-.92,0-.2-.02-.36-.05-.46.61.17,1.25.54,1.91,1.12.66.58,1.19,1.26,1.58,2.04.39.78.54,1.53.43,2.24,0,.27-.14.66-.43,1.17-.29.51-.62.94-.99,1.28-.37.34-.7.46-.97.36-.95-.34-2.56-.62-4.82-.84-2.26-.22-4.33-.33-6.2-.33-2.01,0-3.94.14-5.82.41v6.22c2.07-.07,4.88-.1,8.42-.1,1.6.14,2.4-.29,2.4-1.28,0-.24-.03-.46-.1-.66.68.14,1.49.48,2.42,1.05.94.56,1.73,1.21,2.37,1.94.65.73.94,1.44.87,2.12-.03.24-.23.66-.59,1.28-.36.61-.74,1.15-1.15,1.61-.41.46-.75.64-1.02.54-1.39-.48-2.47-.78-3.24-.92-.76-.14-2.18-.2-4.26-.2l-1.53-.05c-.88,0-2.41.05-4.59.15v6.99c3.03-.14,6.92-.2,11.68-.2,1.6.03,2.4-.41,2.4-1.33,0-.2-.03-.41-.1-.61h0ZM474.58,158.54c.68.14,1.48.48,2.4,1.02.92.54,1.7,1.19,2.35,1.94.65.75.95,1.46.92,2.14-.03.24-.23.66-.59,1.28-.36.61-.75,1.15-1.17,1.61-.43.46-.77.64-1.05.54-1.36-.48-2.43-.79-3.21-.94-.78-.15-2.23-.25-4.34-.28l-3.37.05c-3.5.14-5.73.2-6.68.2-.51.58-1.18,1.06-2.01,1.45-.83.39-1.61.59-2.32.59-.65,0-1.16-.18-1.56-.54-.39-.36-.59-.91-.59-1.66v-22.8c-.82-.54-1.62-1.79-2.4-3.72-.1-.27.27-.83,1.12-1.68.85-.85,1.68-1.5,2.5-1.94.37.71,1.02,1,1.94.87,1.16-.17,2.94-.31,5.36-.41,2.41-.1,4.76-.15,7.04-.15,2.41,0,4.01.05,4.8.15.17.03.37.05.61.05.58,0,.99-.12,1.25-.36.26-.24.38-.54.38-.92,0-.2-.02-.36-.05-.46.61.17,1.25.54,1.91,1.12.66.58,1.19,1.26,1.58,2.04.39.78.54,1.53.43,2.24,0,.27-.14.66-.43,1.17-.29.51-.62.94-.99,1.28-.37.34-.7.46-.97.36-.95-.34-2.56-.62-4.82-.84-2.26-.22-4.33-.33-6.2-.33-2.01,0-3.94.14-5.82.41v6.22c2.07-.07,4.88-.1,8.42-.1,1.6.14,2.4-.29,2.4-1.28,0-.24-.03-.46-.1-.66.68.14,1.49.48,2.42,1.05.94.56,1.73,1.21,2.37,1.94.65.73.94,1.44.87,2.12-.03.24-.23.66-.59,1.28-.36.61-.74,1.15-1.15,1.61-.41.46-.75.64-1.02.54-1.39-.48-2.47-.78-3.24-.92-.77-.14-2.18-.2-4.26-.2l-1.53-.05c-.88,0-2.41.05-4.59.15v6.99c3.03-.14,6.92-.2,11.68-.2,1.6.03,2.4-.41,2.4-1.33,0-.2-.03-.41-.1-.61h0ZM508.61,153.03c1.46,1.09,2.79,2.22,3.98,3.39,1.19,1.17,2.01,2.17,2.45,2.98.48.85.71,1.73.71,2.65s-.23,1.85-.69,2.7c-.46.85-1.01,1.54-1.66,2.07-.65.53-1.22.79-1.73.79-.34,0-.61-.12-.82-.36l-2.6-3.32c-3.98-5.07-6.78-8.48-8.42-10.25-1.26-.17-2.36-.39-3.32-.66v11.17c0,.58-.28,1.17-.84,1.79-.56.61-1.24,1.11-2.04,1.5-.8.39-1.56.59-2.27.59-.65,0-1.17-.2-1.58-.59s-.61-.98-.61-1.76v-25.56c0-1.09-.14-1.86-.41-2.32-.27-.46-.73-.71-1.38-.74.75-.75,1.48-1.34,2.19-1.79.71-.44,1.33-.66,1.84-.66.2,0,.36.02.46.05,1.46.48,2.52,1.02,3.16,1.63,3.47-.99,6.78-1.48,9.95-1.48,1.9,0,3.61.21,5.13.64,1.51.43,2.71,1.11,3.6,2.07.75.82,1.31,1.73,1.68,2.73.37,1,.56,2.05.56,3.14,0,3.84-1.67,6.68-5,8.52-.82.44-1.6.8-2.35,1.07h0ZM496.52,148.03c1.63.48,3.2.71,4.69.71,1.97,0,3.66-.34,5.05-1.02,1.39-.68,2.09-1.8,2.09-3.37,0-.48-.14-1-.43-1.58-.29-.58-.62-1-.99-1.28-.75-.61-1.79-.92-3.11-.92-.92,0-2.06.06-3.42.18-1.36.12-2.65.31-3.88.59v6.68Z"/>
  <path class="cls-1" d="M122.39,3.53c0-1.95,1.58-3.53,3.53-3.53s3.53,1.58,3.53,3.53c0,17.87-7.24,34.05-18.96,45.76-11.71,11.71-27.89,18.96-45.76,18.96s-34.05-7.24-45.76-18.96C7.24,37.58,0,21.4,0,3.53,0,1.58,1.58,0,3.53,0s3.53,1.58,3.53,3.53c0,15.92,6.45,30.34,16.89,40.78,10.43,10.44,24.85,16.89,40.78,16.89s30.34-6.45,40.78-16.89c10.44-10.44,16.89-24.85,16.89-40.78Z"/>
  <path class="cls-1" d="M156.23,12.12c.7-1.81,2.74-2.71,4.55-2.01,1.81.7,2.71,2.73,2.01,4.55-3.31,8.5-9.12,15.75-16.54,20.82-7.21,4.93-15.93,7.82-25.31,7.82-1.21,0-2.42-.05-3.65-.15-1.18-.09-2.39-.24-3.63-.45-9.39-1.53-17.8-5.98-24.27-12.37-6.49-6.42-11.03-14.78-12.67-24.14-.33-1.92.95-3.74,2.86-4.08,1.92-.33,3.74.95,4.08,2.87,1.38,7.9,5.2,14.95,10.66,20.34,5.46,5.4,12.56,9.15,20.47,10.44.96.16,1.97.28,3.05.37,1,.08,2.03.12,3.1.12,7.92,0,15.27-2.43,21.34-6.58,6.26-4.28,11.16-10.38,13.95-17.54Z"/>
  <path class="cls-1" d="M49,6.77c0-1.95,1.58-3.53,3.53-3.53s3.53,1.58,3.53,3.53c0,10.19-3.41,19.59-9.15,27.14-5.87,7.72-14.18,13.48-23.77,16.12-1.87.52-3.81-.58-4.32-2.45-.52-1.87.58-3.81,2.45-4.32,8.1-2.24,15.11-7.09,20.05-13.59,4.83-6.35,7.69-14.28,7.69-22.9Z"/>
  <path class="cls-1" d="M121.37,187.72c.27,1.92-1.06,3.71-2.99,3.98-1.92.27-3.71-1.06-3.98-2.99-1.32-9.11-4.59-21.4-7.86-33.69-4.25-15.98-8.51-31.97-8.69-41.85-.14-7.53,2.04-12.17,7.83-12.28,7.82-.14,13.27-1.99,16.79-5.39,3.07-2.98,4.82-7.3,5.51-12.85-9.55-3.94-22.71-2.93-37.28-1.82-17.41,1.33-36.71,2.81-55.53-3.5-4.27-1.43-7.12-1.15-8.57.12-.55.48-.91,1.14-1.07,1.91-.2.97-.1,2.13.28,3.39,1.41,4.57,6.39,9.77,15.44,12.61,30.94,9.72,37.02,23.44,32.34,38.33-3.63,11.54-14.14,23.27-23.99,34.26-3.1,3.46-6.13,6.84-9.03,10.35-1.24,1.5-3.46,1.71-4.96.47-1.5-1.24-1.71-3.46-.47-4.96,2.67-3.22,5.91-6.84,9.22-10.54,9.35-10.43,19.33-21.56,22.51-31.67,3.46-11-1.93-21.42-27.71-29.52-11.55-3.63-18.08-10.81-20.06-17.26-.73-2.38-.87-4.72-.45-6.84.47-2.32,1.59-4.33,3.33-5.85,3.23-2.81,8.48-3.8,15.43-1.47,17.44,5.85,36.02,4.43,52.77,3.15,16.71-1.28,31.69-2.43,43.16,3.6l2.04,1.07-.16,2.27c-.58,8.44-3.01,15.09-7.86,19.78-4.82,4.67-11.84,7.2-21.58,7.38-.72.01-.97,1.96-.91,5.14.16,8.96,4.31,24.56,8.47,40.16,3.32,12.49,6.65,24.98,8.03,34.49Z"/>
  <path class="cls-1" d="M92.19,100.93c3.03,0,5.5-2.47,5.5-5.5s-2.47-5.5-5.5-5.5-5.5,2.47-5.5,5.5,2.47,5.5,5.5,5.5Z"/>
  <path class="cls-1" d="M267.82,57.99c2.28,1.76,3.42,3.5,3.42,5.21,0,.8-.63,2.11-1.88,3.93-1.31,1.71-2.33,2.45-3.07,2.22-3.64-1.31-8-1.96-13.06-1.96h-7.6l1.2.51c2.05.91,3.07,1.79,3.07,2.65v1.96h4.61c1.08,0,1.71-.23,1.88-.68v-.17c0-.23-.14-.71-.43-1.45,2.68-.11,5.46.65,8.37,2.31,2.68,1.65,4.01,3.02,4.01,4.1,0,.23-.09.43-.26.6l-.34.17-.26.26c-.68.46-.97,1.08-.85,1.88v6.75c.57.68.77,1.37.6,2.05-.06.23-.26.54-.6.94-.68.68-1.14,1.11-1.37,1.28-1.25,1.08-2.39,1.54-3.42,1.37-4.04-.34-10.39-.54-19.04-.6-.74-.06-1.86-.07-3.37-.04-1.51.03-3.17.04-4.99.04l-5.72.09-4.44.09h-4.1c-.57.06-1.39.09-2.48.09-.11,1.08-.23,2.65-.34,4.7.85-.91,1.71-1.68,2.56-2.31.97-.68,1.71-1.02,2.22-1.02,1.76,0,3.7.48,5.81,1.45,1.94.91,2.9,1.82,2.9,2.73v.43h.26c1.37-.11,2.31-.46,2.82-1.02.46-.46.54-.94.26-1.45,1.42.17,2.76.71,4.01,1.62,1.65,1.08,2.5,2.28,2.56,3.59v.17c0,.46-.23,1.28-.68,2.48-.51,1.31-1.02,1.91-1.54,1.79-2.73-.46-5.29-.63-7.68-.51v3.59l9.14-1.2c.34.57.51,1.39.51,2.48,0,1.76-.34,2.76-1.02,2.99-.8.28-2.79.88-5.98,1.79l-2.13.6-.85.26-.77.17-1.02.34-.85.26-1.62.6c-.97.4-1.65.85-2.05,1.37l-.17.26-.09.26-.26.34c-.17.17-.46.26-.85.26-.97,0-2.05-.17-3.24-.51l-.43-.26-.68-.34-1.54-1.2c-1.25-1.08-1.85-2.02-1.79-2.82.11-.51.46-1.45,1.02-2.82.63-1.37,1.14-2.33,1.54-2.9.34.63.88,1.02,1.62,1.2v-7.69c0-.23-.11-.85-.34-1.88-.28-1.2-.88-1.91-1.79-2.13-.06,1.14-.2,2.42-.43,3.84-1.82,10.64-5.32,16.17-10.5,16.56l-1.02.09c-1.76,0-3.22-.6-4.35-1.79-1.25-1.25-1.85-2.93-1.79-5.04.11-1.99-.57-3.56-2.05-4.7,2.45.17,4.27-.43,5.46-1.79,1.48-1.76,2.59-5.35,3.33-10.76.8-5.75,1.2-13.18,1.2-22.29,0-3.42-.03-6.03-.09-7.86-.11-2.5-1.02-3.61-2.73-3.33.11-.23.4-.57.85-1.02l.68-.68.77-.68c1.31-1.31,2.22-1.91,2.73-1.79,1.88.17,3.87.88,5.98,2.13.23.11.4.23.51.34l16.14-.26c-.34-1.02-1-1.59-1.96-1.71.63-.8,2.05-1.57,4.27-2.31,2.5-.8,4.41-1.2,5.72-1.2,2.56,0,4.67.34,6.32,1.02,1.37.63,2.28,1.37,2.73,2.22.11.17.17.48.17.94,0,.4-.03.71-.09.94h.94l8.03.09c1.82,0,2.96-.4,3.42-1.2.17-.28.26-.65.26-1.11l-.17-1.11c2.16.46,4.27,1.54,6.32,3.24h0ZM238.79,70.71c-.28-1.14-.91-1.62-1.88-1.45.8-.8,1.51-1.39,2.13-1.79h-8.71c.17.11.34.2.51.26.17.06.31.11.43.17,2.05.97,3.07,1.85,3.07,2.65v2.05h4.7c0-.85-.09-1.48-.26-1.88h0ZM219.41,67.55h-1.11c0,2.33-.03,4.04-.09,5.12l5.38-.09c0-.85-.09-1.48-.26-1.88-.28-1.14-.91-1.62-1.88-1.45.74-.74,1.42-1.34,2.05-1.79l-1.2.09h-2.9ZM249.89,79.59v4.7h1.62c1.48,0,2.53-.03,3.16-.09l-.09-4.7-4.7.09h0ZM239.14,79.67l-4.78.09v4.53l4.78-.09v-4.53h0ZM223.68,84.37v-4.53l-5.55.09-.09,2.99c0,.63-.03,1.11-.09,1.45h5.72ZM265.01,106.83c-1.94.57-3.96.85-6.06.85-3.76,0-5.64-1.22-5.64-3.67v-.09c2.39-.11,4.24-.26,5.55-.43,5.46-.57,8.45-1.45,8.97-2.65l.09-.43c.06-.23.06-.43,0-.6,0-.51-.09-.97-.26-1.37-.46-1.2-1.34-2.16-2.65-2.9-1.65-1.08-3.61-1.57-5.89-1.45.23,1.2-.54,2.25-2.31,3.16-.74.34-1.76.71-3.07,1.11l.26-1.28c0-.91-1.2-1.91-3.59-2.99-2.22-.97-3.93-1.51-5.12-1.62-.46,0-1.34.51-2.65,1.54-1.25.91-2.13,1.85-2.65,2.82.97.06,1.59.31,1.88.77.28.68.43,1.74.43,3.16l.09,5.89c0,3.19.43,5.41,1.28,6.66.74,1.14,2.5,2.19,5.29,3.16,1.59.63,5.15.94,10.67.94,3.07,0,5.41-.17,7-.51,2.22-.51,3.61-1.71,4.18-3.59.17-.51.26-1.02.26-1.54,0-1.02-.34-1.82-1.02-2.39-.34-.34-.51-.77-.51-1.28,0-1.08.54-2.36,1.62-3.84-1.59,1.14-3.64,1.99-6.15,2.56h0ZM392.56,93.42c0,.74-.65,1.2-1.96,1.37-2.22.23-4.01,1.14-5.38,2.73-6.32,6.26-15.71,11.56-28.18,15.88-9.39,3.19-17.19,4.78-23.4,4.78-2.05,0-3.98-.17-5.81-.51-1.94-.4-3.44-1.45-4.53-3.16-.51-.74-.77-1.51-.77-2.31,0-.85.37-1.74,1.11-2.65.68-.68,1.17-1.71,1.45-3.07.17-.68.26-1.31.26-1.88,0-.74-.11-1.37-.34-1.88,2.28,1.25,5.61,1.88,9.99,1.88s9.31-.57,14.94-1.71l1.45-.26-.68-.34c-.4-.17-.94-.26-1.62-.26-.91,0-1.82.11-2.73.34.85-.68,1.28-1.28,1.28-1.79,0-.4-.23-.74-.68-1.02l-.17-.09c-4.9,1.88-9.39,2.82-13.49,2.82-1.54,0-2.85-.11-3.93-.34-1.71-.4-2.87-1.25-3.5-2.56-.28-.68-.43-1.25-.43-1.71,0-.34.11-.8.34-1.37.57-1.25.85-2.45.85-3.59,0-.97-.17-1.96-.51-2.99,1.37.68,3.24,1.2,5.64,1.54,1.48.17,2.7.26,3.67.26.63,0,1.28-.06,1.96-.17,6.72-1.14,11.75-2.87,15.11-5.21.85-.8,1.42-1.45,1.71-1.96-8.37,2.96-15.26,4.44-20.66,4.44-1.59,0-2.96-.11-4.1-.34-2.45-.4-4.1-1.22-4.95-2.48-.46-.63-.68-1.22-.68-1.79,0-.91.46-1.82,1.37-2.73.85-1.02,1.42-2.11,1.71-3.24.11-.4.17-.97.17-1.71,0-.8-.11-1.54-.34-2.22,2.22,1.14,4.58,2.05,7.09,2.73,1.88.51,3.67.77,5.38.77,1.02,0,1.99-.09,2.9-.26,2.68-.46,5.32-1.05,7.94-1.79-.51-.34-.97-.57-1.37-.68-.46-.17-.97-.26-1.54-.26-.91,0-1.82.11-2.73.34.85-.68,1.25-1.31,1.2-1.88,0-.06-.06-.26-.17-.6-.11-.17-.26-.31-.43-.43l-1.54-1.02c-3.42,1.59-6.57,2.39-9.48,2.39-1.14,0-2.28-.14-3.42-.43-1.59-.4-2.9-1.17-3.93-2.31-1.02-1.08-1.39-2.02-1.11-2.82l1.37-2.05.6-.85c.63-1.08.94-2.08.94-2.99,0-.28-.06-.65-.17-1.11,2.11,1.2,4.53,1.71,7.26,1.54,5.29-.4,9.45-1.99,12.47-4.78,1.02-.97,1.54-1.94,1.54-2.9,0-.57-.14-1.11-.43-1.62,2.22.17,3.96.34,5.21.51,1.76.28,2.79.57,3.07.85,2.16,2.05,3.02,3.64,2.56,4.78l6.06-.17c1.71-.11,2.56-.17,2.56-.17,1.65-.28,2.7-.77,3.16-1.45.23-.28.34-.6.34-.94s-.11-.63-.34-.85c2.22.17,4.33.6,6.32,1.28,1.08.34,2.5.97,4.27,1.88,1.71.91,3.42,2.16,5.12,3.76,1.82,1.82,2.73,3.36,2.73,4.61,0,.74-.77,1.25-2.31,1.54-3.36.57-6.06,1.57-8.11,2.99-5.69,3.87-12.3,7.31-19.81,10.33h.17c2.16.28,3.44.57,3.84.85,1.14.97,2.05,1.94,2.73,2.9,1.65,0,2.79-.03,3.42-.09,1.54-.11,2.31-.17,2.31-.17,1.37-.23,2.28-.68,2.73-1.37.23-.23.34-.48.34-.77,0-.34-.09-.63-.26-.85,2.16.28,3.93.57,5.29.85,2.33.51,4.13,1.14,5.38,1.88,3.7,1.82,5.92,4.47,6.66,7.94v.17h0ZM354.73,68.74c.74,1.02,1.11,2.02,1.11,2.99,0,.63-.17,1.28-.51,1.96l2.73-1.11c5.01-2.11,8.91-4.18,11.7-6.23-.91-.06-2.56-.09-4.95-.09-2.68,0-4.81.03-6.4.09l-7,.34s-.01.01-.04.04c-.03.03-.04.04-.04.04,1.54.4,2.68,1.05,3.42,1.96h0ZM357.21,101.28c7.97-2.05,13.52-4.64,16.65-7.77-.8-.06-2.25-.09-4.35-.09-2.39,0-4.33.03-5.81.09l-4.7.26-3.24,1.79c.46.34.77.63.94.85.74.8,1.11,1.74,1.11,2.82,0,.74-.2,1.42-.6,2.05h0ZM516.86,69.51c1.2,1.94,1.79,3.47,1.79,4.61,0,1.2-.6,2.02-1.79,2.48-1.71.51-3.53,2.22-5.46,5.12l-1.54,2.31c-.57,1.02-1.14,1.85-1.71,2.48l-3.84,5.55c-3.36,4.67-6.46,8.57-9.31,11.7-8.2,9.05-15.71,13.97-22.54,14.77-.28.06-.68.09-1.2.09-1.88,0-3.5-.54-4.87-1.62-1.37-1.08-2.05-2.5-2.05-4.27,0-.63.09-1.28.26-1.96.28-1.2.43-2.48.43-3.84,0-1.71-.34-3.1-1.02-4.18,2.11.91,4.1,1.37,5.98,1.37s4.01-.46,6.4-1.37c3.98-1.59,8.11-4.7,12.38-9.31l-.68-.34-.51-1.02c-.23-.34-.48-.57-.77-.68l-.26-.09-.34-.09-.51-.09-.6-.09c-1.08,0-2.11.26-3.07.77.74-.63,1.42-1.42,2.05-2.39.57-.91.77-1.51.6-1.79-1.37-1.88-2.7-3.3-4.01-4.27-1.99,1.14-4.13,1.88-6.4,2.22l-.77.09c-1.14,0-2.28-.57-3.42-1.71-1.08-1.08-1.62-2.19-1.62-3.33,0-.28.06-.65.17-1.11.23-1.02.34-1.82.34-2.39,0-1.54-.43-3.1-1.28-4.7,1.02.4,2.05.6,3.07.6,1.88,0,3.64-.37,5.29-1.11,5.29-2.45,9.25-6.4,11.87-11.87.4-.74.6-1.48.6-2.22,0-1.37-.54-2.62-1.62-3.76l4.7-1.02,1.71-.17c.63,0,1.05.09,1.28.26,3.02,2.39,4.3,4.41,3.84,6.06-.4,1.42-.97,3.05-1.71,4.87,1.65,0,2.82-.03,3.5-.09,1.37,0,2.19-.03,2.48-.09,1.31-.17,2.05-.63,2.22-1.37.06-.34.06-.71,0-1.11l-.43-1.2c1.31.28,2.87.94,4.7,1.96,1.31.68,2.62,1.59,3.93,2.73,1.31,1.2,2.56,2.73,3.76,4.61h0ZM452.74,65.76c.28.23.2,1-.26,2.31-.4,1.25-1,2.36-1.79,3.33,1.14-.8,2.33-1.31,3.59-1.54l1.37-.17.43.09h.34c.51.17,1.2.77,2.05,1.79.4.17.83.26,1.28.26,1.31,0,2.56-.74,3.76-2.22,1.42-1.76,2.13-3.64,2.13-5.64,0-3.87-1.91-6.75-5.72-8.62-1.94-.97-4.16-1.45-6.66-1.45-1.2,0-2.11.06-2.73.17-.8.11-1.82,1.11-3.07,2.99-1.08,1.76-1.76,3.19-2.05,4.27,1.42-.17,3.87,1.31,7.34,4.44h0ZM499.96,78.56c.63-.97,1.51-2.22,2.65-3.76l1.02-1.45c-.51-.06-1.57-.09-3.16-.09-.57-.06-1.48-.09-2.73-.09s-2.33.03-3.07.09l-2.65.09h-.85c-.23.34-.46.65-.68.94-.23.28-.43.54-.6.77-.74.97-1.62,1.96-2.65,2.99,1.71.4,3.33,1.14,4.87,2.22,1.71,1.31,2.7,3.02,2.99,5.12.28-.46.77-1.14,1.45-2.05l1.71-2.31,1.71-2.48h0ZM450.43,85.74c0-.4-.11-.71-.34-.94-3.47-2.28-5.78-3.24-6.92-2.9.11-.97.54-2.31,1.28-4.01.91-1.88,1.68-2.93,2.31-3.16,1.54-.51,3.07-.77,4.61-.77,1.2,0,2.53.2,4.01.6,3.13.91,5.09,2.9,5.89,5.98.17.68.26,1.37.26,2.05,0,1.42-.43,2.82-1.28,4.18-1.08,1.94-2.48,2.76-4.18,2.48-.85-.68-1.59-1.05-2.22-1.11h-.26c-.51,0-1.28.23-2.31.68-1.25.63-2.16,1.22-2.73,1.79.91-1.25,1.48-2.53,1.71-3.84l.17-1.02h0ZM467,83c-.17-1.02-.74-1.68-1.71-1.96-.23-.11-.54-.17-.94-.17-.34,0-.57.17-.68.51-1.42,5.12-2.62,8.54-3.59,10.25-1.08,2.05-3.3,4.44-6.66,7.17-.8.74-1.99,1.11-3.59,1.11-2.16,0-3.87-.63-5.12-1.88.34.57.65,2.36.94,5.38.28,2.79.37,4.75.26,5.89l-.34,1.37-.17.6-.26.51c-.23.91-.34,1.39-.34,1.45v.09c.63,1.82,1.65,2.99,3.07,3.5.68.23,1.25.34,1.71.34.97,0,2.13-.37,3.5-1.11,2.73-1.59,5.52-5.12,8.37-10.59,1.31-2.68,2.62-6.49,3.93-11.44,1.14-4.04,1.71-7.26,1.71-9.65,0-.63-.03-1.08-.09-1.37Z"/>
</svg>